<svg xmlns="http://www.w3.org/2000/svg" viewBox="0 0 512 512" fill="none">
  <defs>
    <linearGradient id="bgGrad" x1="56" y1="56" x2="456" y2="456" gradientUnits="userSpaceOnUse">
      <stop offset="0%" stop-color="#7C3AED"/>
      <stop offset="45%" stop-color="#2563EB"/>
      <stop offset="100%" stop-color="#06B6D4"/>
    </linearGradient>
    <linearGradient id="triGrad" x1="230" y1="230" x2="280" y2="280" gradientUnits="userSpaceOnUse">
      <stop offset="0%" stop-color="#3B82F6"/>
      <stop offset="100%" stop-color="#1D4ED8"/>
    </linearGradient>
    <linearGradient id="shine" x1="100" y1="56" x2="400" y2="280" gradientUnits="userSpaceOnUse">
      <stop offset="0%" stop-color="#ffffff" stop-opacity="0.15"/>
      <stop offset="100%" stop-color="#ffffff" stop-opacity="0"/>
    </linearGradient>
    <filter id="glow" x="-40%" y="-40%" width="180%" height="180%">
      <feGaussianBlur stdDeviation="8" result="b"/>
      <feMerge><feMergeNode in="b"/><feMergeNode in="SourceGraphic"/></feMerge>
    </filter>
    <filter id="glowBig" x="-50%" y="-50%" width="200%" height="200%">
      <feGaussianBlur stdDeviation="12" result="b"/>
      <feMerge><feMergeNode in="b"/><feMergeNode in="b"/><feMergeNode in="SourceGraphic"/></feMerge>
    </filter>
  </defs>
  <rect x="56" y="56" width="400" height="400" rx="88" fill="url(#bgGrad)"/>
  <rect x="56" y="56" width="400" height="220" rx="88" fill="url(#shine)"/>
  <g transform="rotate(10, 256, 256)" filter="url(#glow)">
    <path d="M120 120 L392 120 L392 340 Q392 360 372 360 L340 360 L340 392 L140 392 Q120 392 120 372 Z" fill="none" stroke="white" stroke-width="11" stroke-linejoin="round" stroke-linecap="round" opacity="0.95"/>
    <rect x="148" y="112" width="26" height="16" rx="3" fill="white" opacity="0.8"/>
    <rect x="188" y="112" width="26" height="16" rx="3" fill="white" opacity="0.8"/>
    <rect x="298" y="112" width="26" height="16" rx="3" fill="white" opacity="0.8"/>
    <rect x="338" y="112" width="26" height="16" rx="3" fill="white" opacity="0.8"/>
    <rect x="148" y="384" width="26" height="16" rx="3" fill="white" opacity="0.8"/>
    <rect x="188" y="384" width="26" height="16" rx="3" fill="white" opacity="0.8"/>
    <rect x="298" y="384" width="26" height="16" rx="3" fill="white" opacity="0.8"/>
    <circle cx="256" cy="256" r="54" fill="white" opacity="0.95"/>
    <polygon points="244,228 244,284 290,256" fill="url(#triGrad)"/>
    <text x="348" y="365" font-family="Arial, Helvetica, sans-serif" font-size="34" font-weight="bold" fill="white" opacity="0.92" text-anchor="middle" letter-spacing="2">AI</text>
  </g>
  <g transform="translate(112, 400) rotate(-15)" filter="url(#glowBig)">
    <path d="M0,-22 C1.5,-6 6,-1.5 22,0 C6,1.5 1.5,6 0,22 C-1.5,6 -6,1.5 -22,0 C-6,-1.5 -1.5,-6 0,-22 Z" fill="white" opacity="0.95"/>
  </g>
  <g transform="translate(88, 372) rotate(-10)" filter="url(#glow)">
    <path d="M0,-10 C1,-3 3,-1 10,0 C3,1 1,3 0,10 C-1,3 -3,1 -10,0 C-3,-1 -1,-3 0,-10 Z" fill="white" opacity="0.7"/>
  </g>
  <g transform="translate(395, 118) rotate(20)" filter="url(#glowBig)">
    <path d="M0,-18 C1.2,-5 5,-1.2 18,0 C5,1.2 1.2,5 0,18 C-1.2,5 -5,1.2 -18,0 C-5,-1.2 -1.2,-5 0,-18 Z" fill="white" opacity="0.92"/>
  </g>
  <g transform="translate(418, 148) rotate(12)" filter="url(#glow)">
    <path d="M0,-9 C0.8,-2.5 2.5,-0.8 9,0 C2.5,0.8 0.8,2.5 0,9 C-0.8,2.5 -2.5,0.8 -9,0 C-2.5,-0.8 -0.8,-2.5 0,-9 Z" fill="white" opacity="0.65"/>
  </g>
</svg>
